<svg width="200" height="60" viewBox="0 0 200 60" xmlns="http://www.w3.org/2000/svg">
  <!-- Heart with cross -->
  <g transform="translate(26, 30)">
    <path d="M0 20 C-22 5 -32 -15 -18 -25 C-9 -31 0 -22 0 -15 C0 -22 9 -31 18 -25 C32 -15 22 5 0 20Z" fill="#2d9e6b" opacity="0.18"/>
    <path d="M0 18 C-20 4 -28 -13 -16 -22 C-8 -28 0 -19 0 -13 C0 -19 8 -28 16 -22 C28 -13 20 4 0 18Z" fill="none" stroke="#2d9e6b" stroke-width="1.5"/>
    <rect x="-2" y="-16" width="4" height="22" rx="2" fill="#2d9e6b"/>
    <rect x="-9" y="-8" width="18" height="4" rx="2" fill="#2d9e6b"/>
    <path d="M15 -20 C19 -27 26 -25 24 -18 C22 -11 15 -15 15 -20Z" fill="#3dbf82" opacity="0.7"/>
  </g>
  <!-- سلامت -->
  <text x="58" y="26" font-family="'Vazirmatn','Tahoma',sans-serif" font-size="22" font-weight="800" fill="#2d9e6b">سلامت</text>
  <!-- NANA tagline -->
  <text x="58" y="44" font-family="'Vazirmatn','Tahoma',sans-serif" font-size="10" fill="#8ea898" letter-spacing="2">NANA</text>
</svg>
